<svg width="18" height="13" viewBox="0 0 18 13" fill="none" xmlns="http://www.w3.org/2000/svg">
<path d="M9 0.25C6.93897 0.25 5.146 1.68262 4.64941 3.65137C3.43652 3.83154 2.47412 4.79834 2.28516 6.05518C0.94043 6.51221 0 7.79541 0 9.25C0 11.1089 1.51611 12.625 3.375 12.625H14.625C16.4839 12.625 18 11.1089 18 9.25C18 8.23926 17.5518 7.29443 16.7783 6.65723C16.8442 6.39795 16.875 6.13428 16.875 5.875C16.875 3.82715 15.0645 2.15723 12.9287 2.55273C12.1377 1.14209 10.6479 0.25 9 0.25ZM9 1.375C10.3579 1.375 11.5796 2.18359 12.1113 3.43164L12.3091 3.91504L12.8013 3.74805C13.0562 3.66455 13.2847 3.625 13.5 3.625C14.7393 3.625 15.75 4.63574 15.75 5.875C15.75 6.13867 15.6973 6.40674 15.5918 6.67481L15.4336 7.10547L15.8203 7.35156C16.4795 7.76904 16.875 8.47656 16.875 9.25C16.875 10.4893 15.8643 11.5 14.625 11.5H3.375C2.13574 11.5 1.125 10.4893 1.125 9.25C1.125 8.18213 1.88525 7.25488 2.92676 7.04395L3.38818 6.91211L3.375 6.4375C3.375 5.50586 4.13086 4.75 5.00537 4.74561L5.11963 4.75879H5.60742L5.67773 4.271C5.91064 2.61865 7.33887 1.375 9 1.375ZM7.3125 5.875C7.00049 5.875 6.75 6.12549 6.75 6.4375C6.75 6.74951 7.00049 7 7.3125 7C7.62451 7 7.875 6.74951 7.875 6.4375C7.875 6.12549 7.62451 5.875 7.3125 5.875ZM10.6875 5.875C10.3755 5.875 10.125 6.12549 10.125 6.4375C10.125 6.74951 10.3755 7 10.6875 7C10.9995 7 11.25 6.74951 11.25 6.4375C11.25 6.12549 10.9995 5.875 10.6875 5.875ZM11.8477 8.09424C11.6763 8.09424 11.5181 8.16895 11.4082 8.30078C11.4082 8.30078 10.4854 9.25 9 9.25C7.51465 9.25 6.5918 8.30078 6.5918 8.30078C6.48633 8.18652 6.3457 8.12061 6.19189 8.11621C5.96338 8.11621 5.75684 8.24805 5.66455 8.45898C5.57666 8.66992 5.62061 8.91602 5.7832 9.07422C5.7832 9.07422 7.02686 10.375 9 10.375C10.9731 10.375 12.2168 9.07422 12.2168 9.07422C12.3882 8.92041 12.4497 8.67432 12.3706 8.45898C12.2871 8.23926 12.0806 8.09863 11.8477 8.09424Z" fill="#0C1823"/>
</svg>
