<svg width="16" height="20" viewBox="0 0 16 20" fill="none" xmlns="http://www.w3.org/2000/svg">
<path d="M8.00002 0.0666565C7.66865 0.0666494 7.40002 0.335273 7.40001 0.666644C7.4 0.998014 7.66863 1.26665 8 1.26666L8.00002 0.0666565ZM10.5507 1.16799L10.7779 0.612699L10.7778 0.612619L10.5507 1.16799ZM13.5427 3.59999L13.0455 3.93592L13.0459 3.93646L13.5427 3.59999ZM14.6667 7.25332H15.2667L15.2667 7.25236L14.6667 7.25332ZM12.7133 11.9107L12.229 11.5565C12.2217 11.5664 12.2148 11.5766 12.2081 11.587L12.7133 11.9107ZM10.7773 14.9333L10.2721 14.6097L10.27 14.6131L10.7773 14.9333ZM8.00001 19.3333L7.49294 19.6541C7.60297 19.828 7.79448 19.9334 8.0003 19.9333C8.20612 19.9332 8.39753 19.8276 8.50739 19.6536L8.00001 19.3333ZM5.22268 14.9427L5.72975 14.6219L5.72819 14.6195L5.22268 14.9427ZM3.28668 11.9147L3.79219 11.5915C3.78555 11.5811 3.7786 11.5709 3.77133 11.561L3.28668 11.9147ZM1.33334 7.25732L0.733343 7.25673V7.25732H1.33334ZM2.45734 3.59999L2.95412 3.93646L2.95415 3.93642L2.45734 3.59999ZM5.44934 1.17199L5.67628 1.72742L5.67729 1.727L5.44934 1.17199ZM8.00089 1.26666C8.33226 1.26617 8.6005 0.997144 8.60001 0.665773C8.59952 0.334403 8.3305 0.0661692 7.99913 0.0666571L8.00089 1.26666ZM8.00001 8.84932C7.66864 8.84932 7.40001 9.11795 7.40001 9.44932C7.40001 9.78069 7.66864 10.0493 8.00001 10.0493V8.84932ZM8.00001 4.45732C7.66864 4.45732 7.40001 4.72595 7.40001 5.05732C7.40001 5.38869 7.66864 5.65732 8.00001 5.65732V4.45732ZM8.01479 10.0571C8.34606 10.049 8.60799 9.77381 8.59983 9.44254C8.59166 9.11127 8.3165 8.84934 7.98523 8.85751L8.01479 10.0571ZM6.05319 8.37557L6.57033 8.07132L6.05319 8.37557ZM6.05319 6.14841L5.53606 5.84415L6.05319 6.14841ZM7.98523 5.66647C8.3165 5.67464 8.59166 5.41271 8.59983 5.08144C8.60799 4.75017 8.34606 4.475 8.01479 4.46684L7.98523 5.66647ZM8 1.26666C8.79683 1.26667 9.58604 1.42179 10.3236 1.72336L10.7778 0.612619C9.89604 0.252113 8.95259 0.0666769 8.00002 0.0666565L8 1.26666ZM10.3234 1.72328C11.4293 2.17591 12.3765 2.94581 13.0455 3.93592L14.0398 3.26406C13.2381 2.07763 12.1031 1.15508 10.7779 0.612699L10.3234 1.72328ZM13.0459 3.93646C13.7093 4.91592 14.0648 6.07132 14.0667 7.25429L15.2667 7.25236C15.2644 5.83013 14.837 4.44106 14.0395 3.26352L13.0459 3.93646ZM14.0667 7.25332C14.0667 8.05213 13.9417 8.6547 13.6655 9.27722C13.3805 9.91977 12.9272 10.6018 12.229 11.5565L13.1976 12.2648C13.8968 11.3088 14.4202 10.5355 14.7625 9.76377C15.1137 8.97195 15.2667 8.20118 15.2667 7.25332H14.0667ZM12.2081 11.587L10.2721 14.6097L11.2826 15.2569L13.2186 12.2343L12.2081 11.587ZM10.27 14.6131L7.49263 19.0131L8.50739 19.6536L11.2847 15.2536L10.27 14.6131ZM8.50708 19.0126L5.72975 14.6219L4.71561 15.2634L7.49294 19.6541L8.50708 19.0126ZM5.72819 14.6195L3.79219 11.5915L2.78117 12.2379L4.71717 15.2659L5.72819 14.6195ZM3.77133 11.561C3.07292 10.604 2.6195 9.92184 2.33441 9.27957C2.05833 8.65757 1.93334 8.05605 1.93334 7.25732H0.733343C0.733343 8.20526 0.886359 8.97508 1.23761 9.76641C1.57986 10.5375 2.1031 11.3107 2.80202 12.2684L3.77133 11.561ZM1.93334 7.25792C1.93452 6.07371 2.29003 4.91694 2.95412 3.93646L1.96057 3.26352C1.16216 4.44229 0.734758 5.83301 0.733344 7.25673L1.93334 7.25792ZM2.95415 3.93642C3.62372 2.94765 4.57084 2.17907 5.67628 1.72742L5.22241 0.616561C3.89779 1.15777 2.76287 2.07875 1.96054 3.26356L2.95415 3.93642ZM5.67729 1.727C6.4146 1.42419 7.20382 1.26783 8.00089 1.26666L7.99913 0.0666571C7.04627 0.06806 6.10281 0.254977 5.2214 0.616976L5.67729 1.727ZM8.00001 10.0493C8.99892 10.0493 9.92196 9.51641 10.4214 8.65132L9.38219 8.05132C9.09709 8.54513 8.57021 8.84932 8.00001 8.84932V10.0493ZM10.4214 8.65132C10.9209 7.78624 10.9209 6.72041 10.4214 5.85532L9.38219 6.45532C9.66728 6.94913 9.66728 7.55752 9.38219 8.05132L10.4214 8.65132ZM10.4214 5.85532C9.92196 4.99024 8.99892 4.45732 8.00001 4.45732V5.65732C8.57021 5.65732 9.09709 5.96152 9.38219 6.45532L10.4214 5.85532ZM7.98523 8.85751C7.40583 8.87179 6.86423 8.57084 6.57033 8.07132L5.53606 8.67983C6.05094 9.55494 6.99976 10.0822 8.01479 10.0571L7.98523 8.85751ZM6.57033 8.07132C6.27643 7.57179 6.27643 6.95219 6.57033 6.45266L5.53606 5.84415C5.02118 6.71926 5.02118 7.80472 5.53606 8.67983L6.57033 8.07132ZM6.57033 6.45266C6.86423 5.95314 7.40583 5.65219 7.98523 5.66647L8.01479 4.46684C6.99976 4.44182 6.05094 4.96904 5.53606 5.84415L6.57033 6.45266Z" fill="#0C1823"/>
</svg>
