<svg width="20" height="20" viewBox="0 0 20 20" fill="none" xmlns="http://www.w3.org/2000/svg">
<path fill-rule="evenodd" clip-rule="evenodd" d="M13.5 10C13.5 11.933 11.933 13.5 10 13.5C8.067 13.5 6.5 11.933 6.5 10C6.5 8.067 8.067 6.5 10 6.5C11.933 6.5 13.5 8.067 13.5 10Z" stroke="#0C1823" stroke-width="1.2" stroke-linecap="round" stroke-linejoin="round"/>
<path d="M19.3333 10.6C19.6647 10.6 19.9333 10.3314 19.9333 9.99999C19.9333 9.66862 19.6647 9.39999 19.3333 9.39999V10.6ZM17 9.39999C16.6686 9.39999 16.4 9.66862 16.4 9.99999C16.4 10.3314 16.6686 10.6 17 10.6V9.39999ZM3 10.6C3.33137 10.6 3.6 10.3314 3.6 9.99999C3.6 9.66862 3.33137 9.39999 3 9.39999V10.6ZM0.666664 9.39999C0.335293 9.39999 0.0666641 9.66862 0.0666641 9.99999C0.0666641 10.3314 0.335293 10.6 0.666664 10.6V9.39999ZM10.6 0.666656C10.6 0.335286 10.3314 0.0666565 10 0.0666565C9.66863 0.0666565 9.4 0.335286 9.4 0.666656H10.6ZM9.4 2.99999C9.4 3.33136 9.66863 3.59999 10 3.59999C10.3314 3.59999 10.6 3.33136 10.6 2.99999H9.4ZM10.6 17C10.6 16.6686 10.3314 16.4 10 16.4C9.66863 16.4 9.4 16.6686 9.4 17H10.6ZM9.4 19.3333C9.4 19.6647 9.66863 19.9333 10 19.9333C10.3314 19.9333 10.6 19.6647 10.6 19.3333H9.4ZM17.0243 3.82425C17.2586 3.58994 17.2586 3.21004 17.0243 2.97573C16.7899 2.74141 16.41 2.74141 16.1757 2.97573L17.0243 3.82425ZM14.5251 4.62639C14.2908 4.86071 14.2908 5.24061 14.5251 5.47492C14.7594 5.70924 15.1393 5.70924 15.3736 5.47492L14.5251 4.62639ZM5.47493 15.3736C5.70924 15.1393 5.70924 14.7594 5.47493 14.5251C5.24061 14.2907 4.86071 14.2907 4.6264 14.5251L5.47493 15.3736ZM2.97573 16.1757C2.74142 16.41 2.74142 16.7899 2.97573 17.0243C3.21005 17.2586 3.58995 17.2586 3.82426 17.0243L2.97573 16.1757ZM3.82426 2.97573C3.58995 2.74141 3.21005 2.74141 2.97573 2.97573C2.74142 3.21004 2.74142 3.58994 2.97573 3.82425L3.82426 2.97573ZM4.6264 5.47492C4.86071 5.70924 5.24061 5.70924 5.47493 5.47492C5.70924 5.24061 5.70924 4.86071 5.47493 4.62639L4.6264 5.47492ZM15.3749 14.5264C15.1406 14.2921 14.7607 14.2921 14.5264 14.5264C14.2921 14.7607 14.2921 15.1406 14.5264 15.3749L15.3749 14.5264ZM16.1757 17.0243C16.41 17.2586 16.7899 17.2586 17.0243 17.0243C17.2586 16.7899 17.2586 16.41 17.0243 16.1757L16.1757 17.0243ZM19.3333 9.39999H17V10.6H19.3333V9.39999ZM3 9.39999H0.666664V10.6H3V9.39999ZM9.4 0.666656V2.99999H10.6V0.666656H9.4ZM9.4 17V19.3333H10.6V17H9.4ZM16.1757 2.97573L14.5251 4.62639L15.3736 5.47492L17.0243 3.82425L16.1757 2.97573ZM4.6264 14.5251L2.97573 16.1757L3.82426 17.0243L5.47493 15.3736L4.6264 14.5251ZM2.97573 3.82425L4.6264 5.47492L5.47493 4.62639L3.82426 2.97573L2.97573 3.82425ZM14.5264 15.3749L16.1757 17.0243L17.0243 16.1757L15.3749 14.5264L14.5264 15.3749Z" fill="#0C1823"/>
</svg>
